<svg width="496" height="272" viewBox="0 0 496 272" fill="none" xmlns="http://www.w3.org/2000/svg">
<path d="M370.642 128H21.358C14.5436 128 9 125.439 9 122.292V37.7075C9 34.5606 14.5436 32 21.358 32H370.642C377.456 32 383 34.5606 383 37.7075V122.292C383 125.439 377.456 128 370.642 128Z" fill="#D9D9D9"/>
<path d="M399.853 26.0942C399.853 18.4189 406.075 12.1968 413.751 12.1968C421.426 12.1968 427.648 18.4189 427.648 26.0942C427.648 31.9218 424.06 36.9086 418.973 38.9733C420.609 42.6649 422.99 45.6978 422.99 45.6978L409.294 57.1111L406.384 37.8766C402.462 35.4196 399.853 31.0628 399.853 26.0942Z" fill="#ED9DA0"/>
<path d="M375.495 118.271L381.591 106.258L388.605 109.818L382.509 121.831C383.16 123.724 383.016 126.047 381.93 128.187C380.03 131.931 375.977 133.692 372.878 132.119C369.779 130.547 368.807 126.236 370.708 122.492C371.794 120.352 373.583 118.864 375.495 118.271Z" fill="#ED9DA0"/>
<path d="M416.868 63.9569L386.071 121.517L374.03 115.074L401.008 56.0961" fill="#090814"/>
<path d="M400.045 77.4464L391.651 116.431L428.233 117.707C428.233 117.707 423.44 90.6329 425.142 85.9538L400.045 77.4464Z" fill="#ED9DA0"/>
<path d="M456.365 227.62L449.484 232.693L454.557 239.574L461.438 234.501L456.365 227.62Z" fill="#ED9DA0"/>
<path d="M464.878 241.626L450.252 252.409C449.001 253.33 447.534 253.97 446.008 254.259L442.356 254.951C441.601 255.094 440.819 254.787 440.363 254.168C439.828 253.443 439.843 252.441 440.4 251.732L444.828 246.092L450.656 234.074L450.69 234.105C451.533 234.875 452.812 236.033 452.908 236.09C454.708 236.488 456.091 236.264 457.017 235.425C458.633 233.96 458.307 231.087 458.304 231.058L458.301 231.036L458.32 231.025C458.761 230.766 459.185 230.708 459.581 230.852C460.422 231.159 460.861 232.264 460.924 232.433C461.746 232.548 463.882 234.997 464.053 235.195C465.282 235.418 466.129 235.879 466.568 236.567C466.953 237.168 467.027 237.934 466.79 238.844C466.504 239.939 465.825 240.927 464.878 241.626Z" fill="#090814"/>
<path d="M397.36 247.698H388.812V256.246H397.36V247.698Z" fill="#ED9DA0"/>
<path d="M395.901 264.022H377.73C376.177 264.022 374.616 263.667 373.216 262.994L369.867 261.384C369.174 261.051 368.726 260.339 368.726 259.57C368.726 258.669 369.333 257.872 370.202 257.632L377.113 255.719L388.936 249.505L388.945 249.549C389.166 250.669 389.508 252.361 389.552 252.464C390.764 253.853 392.01 254.493 393.254 254.367C395.424 254.147 396.866 251.641 396.881 251.616L396.892 251.596L396.914 251.598C397.422 251.651 397.798 251.856 398.031 252.208C398.526 252.954 398.224 254.103 398.174 254.277C398.767 254.857 399.033 258.096 399.054 258.357C399.911 259.266 400.318 260.139 400.264 260.953C400.217 261.665 399.822 262.326 399.091 262.918C398.211 263.63 397.078 264.022 395.901 264.022Z" fill="#090814"/>
<path d="M432.24 104.71H391.27L384.74 249.984H399.168L408.49 188.204L445.897 237.628L459.553 225.272L432.24 188.204V104.71Z" fill="#090814"/>
<path d="M406.965 46.2449L422.703 42.4165L432.792 55.3338C435.195 60.2361 435.574 65.8868 433.848 71.0663L425.482 96.1627C425.482 96.1627 399.96 95.7373 394.43 80.8493L392.845 77.5467C390.678 73.0323 391.17 67.692 394.124 63.649L406.965 46.2449Z" fill="#090814"/>
<path d="M432.917 35.3191C432.917 35.3191 432.243 40.2086 426.071 40.5438L419.9 40.8789C419.9 40.8789 423.288 25.5734 418.932 28.4781C414.575 31.3828 402.958 19.2054 402.958 19.2054L399.53 25.6342C399.53 25.6342 391.341 22.6687 400.417 15.407C400.417 15.407 411.246 7.03504 422.742 12.0624C434.238 17.0898 432.917 35.3191 432.917 35.3191Z" fill="#090814"/>
<path d="M423.717 129.217L423.425 115.748L431.289 115.578L431.581 129.046C433.048 130.408 434.016 132.524 434.069 134.923C434.16 139.122 431.417 142.586 427.943 142.661C424.468 142.737 421.578 139.395 421.487 135.196C421.435 132.797 422.311 130.641 423.717 129.217Z" fill="#ED9DA0"/>
<path d="M434.573 61.8081V127.089H420.917L416.881 62.3592" fill="#090814"/>
<path d="M272.766 263.743H290.28H305.847H306.473H320.178H414.029H436.363H496" stroke="#090814" stroke-width="1.5" stroke-miterlimit="10"/>
<path d="M34.5291 9.95792H73.5498" stroke="#090814" stroke-width="2" stroke-miterlimit="10"/>
<path d="M34.5291 24.7475H116.611" stroke="#090814" stroke-width="2" stroke-miterlimit="10"/>
<path d="M34.5291 18.0922H152.106" stroke="#090814" stroke-width="2" stroke-miterlimit="10"/>
<path d="M25.6553 20.3106C29.331 20.3106 32.3106 17.331 32.3106 13.6553C32.3106 9.97969 29.331 7 25.6553 7C21.9797 7 19 9.97969 19 13.6553C19 17.331 21.9797 20.3106 25.6553 20.3106Z" fill="#6C63FF"/>
<path d="M291.495 130.87L291.454 130.829L291.413 130.87C289.411 128.869 286.166 128.872 284.165 130.874C282.164 132.877 282.124 136.162 284.126 138.163L291.459 145.489L298.787 138.154C300.788 136.151 300.746 132.866 298.744 130.865C296.742 128.864 293.497 128.867 291.496 130.869L291.495 130.87Z" fill="#6C63FF"/>
<path d="M60.832 61.2C61.6427 61.6693 62.24 62.3307 62.624 63.184C63.0507 63.9947 63.264 64.8907 63.264 65.872C63.264 66.7253 63.0933 67.5787 62.752 68.432C62.4107 69.2853 61.9627 69.9893 61.408 70.544C56.544 70.6293 51.9573 70.8427 47.648 71.184C47.4347 72.08 46.9867 74.064 46.304 77.136C46.2187 77.52 45.9413 78.864 45.472 81.168C50.0373 80.784 53.6427 80.272 56.288 79.632C57.1413 80.144 57.7813 80.8267 58.208 81.68C58.6773 82.4907 58.912 83.3867 58.912 84.368C58.912 85.264 58.72 86.1173 58.336 86.928C57.9947 87.696 57.504 88.3147 56.864 88.784C56.0533 88.8693 55.2427 88.9333 54.432 88.976C53.664 89.0187 52.9173 89.0613 52.192 89.104L44.192 89.68C43.8507 91.856 43.5093 94.4373 43.168 97.424C42.784 100.624 42.4427 102.864 42.144 104.144C41.8453 105.381 41.3547 106 40.672 106C39.6053 106 38.3893 105.637 37.024 104.912C35.7013 104.144 34.5493 103.269 33.568 102.288C32.6293 101.264 32.16 100.432 32.16 99.792C32.16 99.152 32.3733 97.744 32.8 95.568C33.2693 93.392 33.7813 91.0453 34.336 88.528C36.256 80.2507 37.3867 74.576 37.728 71.504L35.04 71.696C34.2293 71.2693 33.568 70.6507 33.056 69.84C32.5867 68.9867 32.352 68.0693 32.352 67.088C32.352 65.3813 33.0133 63.8667 34.336 62.544C40.1813 62.4587 45.2587 62.3307 49.568 62.16C53.92 61.9893 57.6747 61.6693 60.832 61.2ZM76.1665 69.84C79.1958 70.1813 81.9478 71.0987 84.4225 72.592C86.9398 74.0427 88.9025 75.792 90.3105 77.84C91.7185 79.888 92.4225 81.936 92.4225 83.984C92.4225 87.056 91.6332 90.32 90.0545 93.776C88.4758 97.232 86.2785 100.133 83.4625 102.48C80.6465 104.827 77.5105 106 74.0545 106C72.3478 106 70.5345 105.381 68.6145 104.144C66.6945 102.864 65.0732 101.328 63.7505 99.536C62.4705 97.7013 61.8305 96.08 61.8305 94.672C61.8305 92.0693 62.1505 89.4027 62.7905 86.672C63.4305 83.8987 64.4118 81.2107 65.7345 78.608C66.9718 77.9253 68.2092 77.584 69.4465 77.584C70.0012 77.584 70.5132 77.648 70.9825 77.776C70.8118 77.264 70.7265 76.6667 70.7265 75.984C70.7265 74.6187 71.1958 73.3813 72.1345 72.272C73.1158 71.1627 74.4598 70.352 76.1665 69.84ZM71.7505 98.704C75.2918 97.5093 78.0438 95.4613 80.0065 92.56C81.9692 89.6587 83.2705 86.2027 83.9105 82.192C81.9905 80.8267 79.3878 80.144 76.1025 80.144C75.2918 80.144 74.6732 80.1653 74.2465 80.208C74.7158 81.0613 74.9505 82.0213 74.9505 83.088C73.8412 84.8373 72.9878 86.7787 72.3905 88.912C71.7932 91.0027 71.4945 93.1147 71.4945 95.248C71.4945 96.528 71.5798 97.68 71.7505 98.704ZM105.142 106C103.99 106 102.731 105.637 101.366 104.912C100.001 104.144 98.8273 103.269 97.846 102.288C96.8647 101.264 96.374 100.411 96.374 99.728C96.374 98.9173 96.5447 97.872 96.886 96.592C97.2273 95.2693 97.7393 93.5627 98.422 91.472C99.1047 89.296 99.6167 87.568 99.958 86.288C100.299 84.9653 100.47 83.8987 100.47 83.088C100.47 82.7467 100.278 82.384 99.894 82C99.51 81.616 98.9127 81.104 98.102 80.464C97.1633 79.696 96.4807 79.0987 96.054 78.672C95.6273 78.2453 95.414 77.8187 95.414 77.392C95.414 76.496 95.8407 75.4507 96.694 74.256C97.5473 73.0613 98.55 72.0373 99.702 71.184C100.854 70.3307 101.835 69.904 102.646 69.904C103.542 69.904 104.566 70.3093 105.718 71.12C106.87 71.9307 107.873 72.8693 108.726 73.936C109.579 74.96 110.006 75.7493 110.006 76.304C110.006 77.9253 109.686 80.0587 109.046 82.704L109.814 83.088C110.795 81.5093 111.862 79.632 113.014 77.456C114.209 75.2373 114.934 73.872 115.19 73.36L116.406 71.056C119.35 70.9707 121.547 71.504 122.998 72.656C124.449 73.808 125.174 75.344 125.174 77.264C125.174 79.1413 124.555 81.0187 123.318 82.896C120.246 83.92 117.622 84.944 115.446 85.968C113.313 86.9493 111.158 88.1227 108.982 89.488C108.854 94.224 108.47 98.1707 107.83 101.328C107.233 104.443 106.337 106 105.142 106ZM136.989 106C135.879 106 134.663 105.595 133.341 104.784C132.061 103.931 130.973 102.971 130.077 101.904C129.181 100.795 128.733 99.8987 128.733 99.216C128.733 98.5333 128.925 97.552 129.309 96.272C129.735 94.992 130.162 93.712 130.589 92.432C131.058 91.152 131.357 90.3413 131.485 90C132.039 88.5067 132.53 87.0987 132.957 85.776C133.426 84.4533 133.661 83.5573 133.661 83.088C133.661 82.7467 133.447 82.384 133.021 82C132.637 81.5733 132.039 81.0613 131.229 80.464C130.29 79.7387 129.586 79.1627 129.117 78.736C128.69 78.3093 128.477 77.8613 128.477 77.392C128.477 76.496 128.882 75.4507 129.693 74.256C130.546 73.0613 131.527 72.0373 132.637 71.184C133.789 70.3307 134.77 69.904 135.581 69.904C136.477 69.904 137.501 70.3093 138.653 71.12C139.847 71.9307 140.871 72.8693 141.725 73.936C142.621 74.96 143.069 75.7493 143.069 76.304C143.069 78.9493 142.621 82.128 141.725 85.84C140.829 89.552 139.677 93.2427 138.269 96.912C141.085 94.5653 143.602 91.9627 145.821 89.104C148.039 86.2453 149.597 83.6853 150.493 81.424C150.578 78.6507 150.898 76.3253 151.453 74.448C152.05 72.5707 152.733 71.632 153.501 71.632C154.61 71.632 155.826 72.0373 157.149 72.848C158.514 73.616 159.666 74.5333 160.604 75.6C161.543 76.624 162.013 77.4347 162.013 78.032C161.97 78.928 161.565 80.6133 160.797 83.088C160.029 85.52 158.962 88.656 157.597 92.496C156.786 94.8853 156.317 96.2507 156.189 96.592C157.426 96.0373 158.535 95.4613 159.517 94.864C160.541 94.224 161.607 93.4347 162.717 92.496C164.594 93.136 165.981 94.032 166.877 95.184C167.815 96.2933 168.285 97.5733 168.285 99.024C168.285 100.048 167.559 101.115 166.109 102.224C164.658 103.291 162.93 104.187 160.925 104.912C158.919 105.637 157.213 106 155.805 106C154.909 106 153.842 105.637 152.605 104.912C151.367 104.144 150.258 103.291 149.277 102.352C148.338 101.371 147.869 100.645 147.869 100.176C147.869 99.7067 148.018 99.1307 148.317 98.448C148.658 97.7653 149.021 97.04 149.405 96.272C149.831 95.4613 150.151 94.8853 150.365 94.544L148.765 93.648C146.418 97.9573 144.391 101.093 142.685 103.056C141.021 105.019 139.122 106 136.989 106ZM179.977 106C178.995 106 177.822 105.659 176.457 104.976C175.134 104.251 173.961 103.397 172.937 102.416C171.955 101.435 171.465 100.624 171.465 99.984C171.422 99.3013 171.614 97.872 172.041 95.696C172.51 93.4773 172.809 92.048 172.937 91.408C173.107 90.5547 173.427 88.9973 173.897 86.736C174.366 84.432 174.75 82.2987 175.049 80.336L175.561 77.328C176.371 72.5493 177.118 68.6667 177.801 65.68C178.526 62.6933 179.251 61.2 179.977 61.2C180.702 61.2 181.683 61.4987 182.921 62.096C184.201 62.6933 185.395 63.4613 186.505 64.4C187.614 65.296 188.361 66.1493 188.745 66.96C189.427 68.496 190.323 71.7813 191.433 76.816C192.201 80.3147 192.777 82.7253 193.161 84.048C194.995 81.2747 197.342 77.0293 200.201 71.312C202.035 67.6853 203.422 65.104 204.361 63.568C205.342 61.9893 206.217 61.2 206.985 61.2C207.795 61.2 208.883 61.5627 210.249 62.288C211.657 63.0133 212.873 63.8667 213.897 64.848C214.963 65.8293 215.497 66.6827 215.497 67.408C215.497 68.0053 215.241 69.6907 214.729 72.464C214.217 75.1947 213.897 76.9013 213.769 77.584L212.105 86.608C211.678 89.1253 211.23 92.432 210.761 96.528C210.334 100.027 209.95 102.48 209.609 103.888C209.31 105.296 208.819 106 208.137 106C207.155 106 205.982 105.659 204.617 104.976C203.294 104.251 202.121 103.397 201.097 102.416C200.115 101.435 199.625 100.624 199.625 99.984C199.582 99.4293 199.731 98.256 200.073 96.464C200.457 94.6293 200.883 92.56 201.353 90.256C201.737 88.4213 201.95 87.376 201.993 87.12L204.297 80.016L203.401 79.696L202.761 80.976C201.097 84.3893 199.753 87.056 198.729 88.976C197.747 90.8533 196.937 92.1973 196.297 93.008C195.87 93.52 195.102 93.9467 193.993 94.288C192.883 94.5867 191.795 94.736 190.729 94.736C189.619 94.736 188.873 94.544 188.489 94.16C188.105 93.8187 187.763 93.1147 187.465 92.048C187.209 90.9387 186.846 89.232 186.377 86.928C186.291 86.4587 186.057 85.328 185.673 83.536C185.289 81.7013 184.862 80.0373 184.393 78.544L183.945 86.608C183.518 89.1253 183.07 92.432 182.601 96.528C182.174 100.027 181.79 102.48 181.449 103.888C181.15 105.296 180.659 106 179.977 106ZM230.6 106C228.552 106 226.418 105.339 224.2 104.016C221.981 102.651 220.146 100.987 218.696 99.024C217.245 97.0613 216.52 95.2053 216.52 93.456C216.52 90.3413 217.245 86.928 218.696 83.216C220.189 79.504 222.237 76.368 224.84 73.808C227.442 71.2053 230.386 69.904 233.672 69.904C236.018 69.904 238.13 70.416 240.008 71.44C241.928 72.464 243.421 73.744 244.488 75.28C245.554 76.816 246.088 78.3093 246.088 79.76C246.088 81.552 245.277 83.3227 243.656 85.072C242.034 86.7787 239.773 88.2933 236.872 89.616C233.97 90.896 230.664 91.8133 226.952 92.368C226.909 92.88 226.888 93.648 226.888 94.672C226.888 95.952 226.93 96.912 227.016 97.552C229.149 97.3387 231.261 96.7627 233.352 95.824C235.442 94.8853 237.725 93.5627 240.2 91.856C241.864 92.368 243.122 93.1787 243.976 94.288C244.829 95.3973 245.256 96.72 245.256 98.256C245.256 99.536 244.466 100.795 242.888 102.032C241.352 103.227 239.432 104.187 237.128 104.912C234.824 105.637 232.648 106 230.6 106ZM227.912 87.568C230.514 86.6293 232.69 85.4347 234.44 83.984C236.189 82.5333 237.064 81.296 237.064 80.272C237.064 79.0773 236.232 78.2667 234.568 77.84C232.946 79.0347 231.56 80.464 230.408 82.128C229.298 83.792 228.466 85.6053 227.912 87.568ZM286.122 92.496C287.999 93.136 289.386 94.032 290.282 95.184C291.22 96.2933 291.69 97.5733 291.69 99.024C291.69 100.048 290.964 101.115 289.514 102.224C288.063 103.291 286.335 104.187 284.33 104.912C282.324 105.637 280.618 106 279.21 106C278.228 106 277.098 105.637 275.818 104.912C274.58 104.187 273.492 103.333 272.554 102.352C271.658 101.371 271.21 100.603 271.21 100.048C271.21 99.6213 271.38 99.0453 271.722 98.32C272.106 97.5947 272.511 96.848 272.938 96.08C273.364 95.312 273.642 94.8 273.77 94.544L272.17 93.648C269.908 97.3173 267.754 100.304 265.706 102.608C263.7 104.869 261.78 106 259.946 106C258.58 106 257.108 105.403 255.53 104.208C253.951 102.971 252.607 101.52 251.498 99.856C250.388 98.1493 249.834 96.6347 249.834 95.312C249.834 91.344 250.666 87.3973 252.33 83.472C253.994 79.504 256.191 76.2613 258.922 73.744C261.695 71.184 264.618 69.904 267.69 69.904C268.927 69.904 270.186 70.224 271.466 70.864C272.788 71.504 274.026 72.3787 275.178 73.488C275.562 69.3493 275.754 64.72 275.754 59.6C275.754 58.704 276.031 57.9573 276.586 57.36C277.183 56.72 277.887 56.4 278.698 56.4C279.892 56.4 281.215 56.8267 282.666 57.68C284.159 58.5333 285.418 59.5573 286.442 60.752C287.466 61.904 287.978 62.8427 287.978 63.568C287.978 64.5493 287.764 65.808 287.338 67.344C286.911 68.8373 286.143 71.2693 285.034 74.64C283.498 79.2053 282.538 82.3413 282.154 84.048C281.002 88.6987 280.127 92.88 279.53 96.592C282.132 95.312 284.33 93.9467 286.122 92.496ZM259.882 97.104C262.783 94.928 265.428 92.6027 267.818 90.128C270.207 87.6107 272.212 84.7093 273.834 81.424L274.41 78.928C273.087 78.3307 271.914 78.032 270.89 78.032C268.884 78.032 267.092 78.928 265.514 80.72C263.935 82.512 262.676 84.8587 261.738 87.76C260.799 90.6613 260.18 93.776 259.882 97.104ZM307.894 68.048C307.083 68.048 306.102 67.728 304.95 67.088C303.841 66.4053 302.881 65.616 302.07 64.72C301.259 63.7813 300.854 62.9493 300.854 62.224C300.854 61.072 301.153 59.92 301.75 58.768C302.347 57.616 303.094 56.784 303.99 56.272C304.417 56.0587 305.099 55.952 306.038 55.952C307.574 55.952 309.11 56.2933 310.646 56.976C312.225 57.6587 313.185 58.512 313.526 59.536C313.611 59.7493 313.654 60.0693 313.654 60.496C313.654 61.4773 313.355 62.5653 312.758 63.76C312.161 64.9547 311.414 65.9787 310.518 66.832C309.622 67.6427 308.747 68.048 307.894 68.048ZM303.542 106C302.433 106 301.174 105.637 299.766 104.912C298.401 104.144 297.206 103.269 296.182 102.288C295.201 101.264 294.71 100.411 294.71 99.728C294.71 98.96 294.987 97.8293 295.542 96.336C296.097 94.8427 296.929 92.7947 298.038 90.192C298.891 88.1867 299.531 86.6293 299.958 85.52C300.385 84.368 300.598 83.5573 300.598 83.088C300.598 82.7467 300.385 82.384 299.958 82C299.574 81.5733 298.977 81.0613 298.166 80.464C297.227 79.7387 296.523 79.1627 296.054 78.736C295.627 78.3093 295.414 77.8613 295.414 77.392C295.414 76.496 295.819 75.4507 296.63 74.256C297.483 73.0613 298.465 72.0373 299.574 71.184C300.726 70.3307 301.707 69.904 302.518 69.904C303.499 69.904 304.566 70.3307 305.718 71.184C306.913 72.0373 307.915 73.0613 308.726 74.256C309.579 75.408 310.006 76.3467 310.006 77.072C310.006 78.9493 309.515 81.6373 308.534 85.136C307.595 88.592 306.379 92.3253 304.886 96.336C305.91 95.8667 306.806 95.376 307.574 94.864C308.342 94.352 309.409 93.5627 310.774 92.496C312.694 93.136 314.102 94.0533 314.998 95.248C315.894 96.4 316.342 97.6587 316.342 99.024C316.342 100.133 315.617 101.221 314.166 102.288C312.758 103.355 311.03 104.251 308.982 104.976C306.934 105.659 305.121 106 303.542 106ZM348.967 96.592C351.57 95.312 353.767 93.9467 355.559 92.496C357.436 93.136 358.823 94.032 359.719 95.184C360.658 96.2933 361.127 97.5733 361.127 99.024C361.127 100.048 360.402 101.115 358.951 102.224C357.5 103.291 355.772 104.187 353.767 104.912C351.762 105.637 350.055 106 348.647 106C347.666 106 346.535 105.637 345.255 104.912C344.018 104.187 342.93 103.333 341.991 102.352C341.095 101.371 340.647 100.603 340.647 100.048C340.647 99.6213 340.818 99.0453 341.159 98.32C341.543 97.5947 341.948 96.848 342.375 96.08C342.802 95.312 343.079 94.8 343.207 94.544L341.607 93.648C339.346 97.36 337.17 100.347 335.079 102.608C333.031 104.869 331.004 106 328.999 106C327.634 106 326.183 105.403 324.647 104.208C323.154 103.013 321.874 101.563 320.807 99.856C319.783 98.1493 319.271 96.6347 319.271 95.312C319.271 91.5147 320.06 87.632 321.639 83.664C323.218 79.696 325.415 76.4107 328.231 73.808C331.09 71.2053 334.311 69.904 337.895 69.904C339.175 69.904 340.476 70.48 341.799 71.632C343.122 72.784 343.975 73.9573 344.359 75.152C344.572 74.2133 344.871 73.4027 345.255 72.72C345.682 71.9947 346.13 71.632 346.599 71.632C347.708 71.632 348.924 72.0373 350.247 72.848C351.612 73.616 352.764 74.5333 353.703 75.6C354.642 76.624 355.111 77.4347 355.111 78.032C355.068 78.8427 354.727 80.1867 354.087 82.064C353.49 83.9413 352.508 86.8 351.143 90.64C350.332 92.7307 349.607 94.7147 348.967 96.592ZM329.319 97.104C332.775 94.9707 335.783 92.3467 338.343 89.232C340.903 86.0747 342.652 82.5973 343.591 78.8C342.439 78.288 341.351 78.032 340.327 78.032C338.322 78.032 336.53 78.928 334.951 80.72C333.372 82.512 332.114 84.8587 331.175 87.76C330.236 90.6613 329.618 93.776 329.319 97.104Z" fill="url(#paint0_linear_62_2)"/>
<defs>
<linearGradient id="paint0_linear_62_2" x1="137.5" y1="90" x2="364" y2="89.5" gradientUnits="userSpaceOnUse">
<stop stop-color="#344CB7"/>
<stop offset="1" stop-color="#172251"/>
</linearGradient>
</defs>
</svg>
