<svg width="30" height="22" viewBox="0 0 30 22" fill="none" xmlns="http://www.w3.org/2000/svg">
<path d="M27.8564 8.58325H7.29906L12.2294 3.67436C12.633 3.27071 12.8598 2.72324 12.8598 2.15239C12.8598 1.58154 12.633 1.03407 12.2294 0.63042C11.8257 0.226768 11.2783 0 10.7074 0C10.1366 0 9.5891 0.226768 9.18544 0.63042L0.610961 9.2049C0.415804 9.40877 0.262825 9.64916 0.160801 9.9123C-0.0536002 10.4342 -0.0536002 11.0196 0.160801 11.5414C0.262825 11.8046 0.415804 12.045 0.610961 12.2488L9.18544 20.8233C9.38472 21.0242 9.62181 21.1837 9.88303 21.2925C10.1442 21.4014 10.4244 21.4574 10.7074 21.4574C10.9904 21.4574 11.2706 21.4014 11.5318 21.2925C11.793 21.1837 12.0301 21.0242 12.2294 20.8233C12.4303 20.624 12.5898 20.387 12.6986 20.1257C12.8074 19.8645 12.8635 19.5843 12.8635 19.3014C12.8635 19.0184 12.8074 18.7382 12.6986 18.477C12.5898 18.2157 12.4303 17.9787 12.2294 17.7794L7.29906 12.8705H27.8564C28.4249 12.8705 28.9701 12.6446 29.3722 12.2426C29.7742 11.8406 30 11.2954 30 10.7269C30 10.1583 29.7742 9.61311 29.3722 9.2111C28.9701 8.8091 28.4249 8.58325 27.8564 8.58325Z" fill="black"/>
</svg>
