<svg width="15" height="15" viewBox="0 0 15 15" fill="none" xmlns="http://www.w3.org/2000/svg">
<path d="M14.1709 10.9207C14.7149 9.86244 14.9991 8.68988 15 7.5C15 3.36477 11.6352 0 7.5 0C3.36477 0 0 3.36477 0 7.5C0 11.6352 3.36477 15 7.5 15C8.68773 15 9.86454 14.7143 10.9214 14.1716L14.1532 14.9795C14.2673 15.0083 14.387 15.0069 14.5004 14.9754C14.6139 14.944 14.7172 14.8836 14.8002 14.8002C14.8835 14.7169 14.9438 14.6135 14.9752 14.5C15.0067 14.3865 15.0081 14.2668 14.9795 14.1525L14.1709 10.9207ZM12.7848 10.9957L13.3807 13.3807L10.9957 12.7841C10.8271 12.7425 10.649 12.7663 10.4973 12.8509C9.58193 13.3651 8.54987 13.6356 7.5 13.6364C4.11614 13.6364 1.36364 10.8832 1.36364 7.5C1.36364 4.11682 4.11614 1.36364 7.5 1.36364C10.8839 1.36364 13.6364 4.11682 13.6364 7.5C13.6354 8.54955 13.3652 9.58131 12.8516 10.4966C12.7661 10.6482 12.7422 10.8269 12.7848 10.9957Z" fill="#231F20"/>
</svg>
