<svg width="15" height="16" viewBox="0 0 15 16" fill="none" xmlns="http://www.w3.org/2000/svg">
<path d="M14.474 6.90138C14.2632 6.64834 13.9995 6.44465 13.7014 6.30468C13.4033 6.16471 13.0782 6.09187 12.7488 6.09131H9.32855L9.74859 5.01872C9.9233 4.54909 9.98149 4.04409 9.91815 3.54703C9.85482 3.04997 9.67185 2.5757 9.38495 2.16489C9.09805 1.75408 8.71577 1.419 8.27092 1.18839C7.82606 0.957781 7.33191 0.838526 6.83084 0.840854C6.68655 0.841155 6.54542 0.883064 6.42435 0.961556C6.30329 1.04005 6.20743 1.15179 6.14828 1.28339L4.01059 6.09131H2.24794C1.65115 6.09131 1.0788 6.32838 0.656809 6.75038C0.234815 7.17237 -0.0022583 7.74472 -0.0022583 8.34151V13.592C-0.0022583 14.1888 0.234815 14.7611 0.656809 15.1831C1.0788 15.6051 1.65115 15.8422 2.24794 15.8422H11.7963C12.3227 15.842 12.8324 15.6573 13.2366 15.3201C13.6409 14.983 13.9142 14.5148 14.009 13.997L14.9615 8.74654C15.0205 8.42205 15.0073 8.08857 14.9231 7.76971C14.8388 7.45086 14.6855 7.15442 14.474 6.90138ZM1.13969 14.2405L2.24794 14.342C2.04901 14.342 1.85823 14.263 1.71756 14.1223C1.5769 13.9817 1.49787 13.7909 1.49787 13.592V8.34151C1.49787 8.14258 1.5769 7.95179 1.71756 7.81113C1.85823 7.67047 2.04901 7.59144 2.24794 7.59144H1.13969V14.2405ZM13.4989 8.47652L12.5463 13.727C12.5144 13.9017 11.8404 13.4793 11.703 13.592C11.5657 13.7046 11.9739 14.3449 11.7963 14.342L4 14.5L4.01059 7H5.5C5.21162 6.59151 6.83225 2.85961 7 3C7.16775 3.14039 6.90274 2.30406 7 2.5C7.09726 2.69594 6.98959 1.7815 7 2C7.01041 2.2185 4.08879 6.79571 4.01059 7C4.01059 6.39379 5 6.5 5 7C5 7.5 4.78571 14.3875 5 14.5C5.21429 14.6125 12.7417 17.3984 13.3264 11.5L13.5847 7.66203L12.7488 7.59144C13.7014 8.74654 12.9679 7.61536 13.0677 7.66203C13.1676 7.7087 13.2559 7.77679 13.3264 7.86146C13.3987 7.94496 13.4516 8.04339 13.4814 8.14971C13.5112 8.25603 13.5172 8.36762 13.4989 8.47652Z" fill="#000957"/>
</svg>
