<svg width="15" height="15" viewBox="0 0 15 15" fill="none" xmlns="http://www.w3.org/2000/svg">
<path d="M14.4763 6.06056C14.2655 5.80752 14.0018 5.60383 13.7037 5.46386C13.4056 5.32389 13.0804 5.25105 12.7511 5.25049H9.33081L9.75085 4.1779C9.92556 3.70827 9.98375 3.20327 9.92041 2.70621C9.85707 2.20915 9.67411 1.73488 9.38721 1.32407C9.1003 0.913262 8.71803 0.578181 8.27317 0.347571C7.82832 0.116961 7.33416 -0.00229477 6.83309 3.34463e-05C6.68881 0.000334494 6.54768 0.0422435 6.42661 0.120736C6.30555 0.199228 6.20969 0.310973 6.15053 0.442572L4.01285 5.25049H2.2502C1.65341 5.25049 1.08106 5.48756 0.659067 5.90956C0.237074 6.33155 0 6.9039 0 7.50069V12.7511C0 13.3479 0.237074 13.9203 0.659067 14.3423C1.08106 14.7643 1.65341 15.0013 2.2502 15.0013H11.7985C12.3249 15.0012 12.8346 14.8164 13.2389 14.4793C13.6432 14.1422 13.9165 13.674 14.0112 13.1562L14.9638 7.90572C15.0227 7.58123 15.0096 7.24775 14.9253 6.92889C14.8411 6.61004 14.6878 6.3136 14.4763 6.06056ZM3.75033 13.5012H2.2502C2.05127 13.5012 1.86048 13.4222 1.71982 13.2815C1.57916 13.1409 1.50013 12.9501 1.50013 12.7511V7.50069C1.50013 7.30176 1.57916 7.11097 1.71982 6.97031C1.86048 6.82965 2.05127 6.75062 2.2502 6.75062H3.75033V13.5012ZM13.5012 7.6357L12.5486 12.8862C12.5166 13.0609 12.4237 13.2186 12.2864 13.3312C12.149 13.4439 11.9761 13.5041 11.7985 13.5012H5.25046V6.15807L7.29063 1.56767C7.50064 1.62889 7.69567 1.73299 7.86343 1.87338C8.03118 2.01378 8.168 2.18742 8.26527 2.38336C8.36253 2.5793 8.41812 2.79327 8.42852 3.01177C8.43893 3.23027 8.40393 3.44856 8.32572 3.65285L7.92819 4.72544C7.84348 4.95216 7.81488 5.196 7.84484 5.43615C7.87479 5.67631 7.96241 5.90566 8.1002 6.10462C8.238 6.30358 8.42189 6.46625 8.63618 6.57873C8.85047 6.69122 9.08879 6.7502 9.33081 6.75062H12.7511C12.8613 6.75044 12.9702 6.77454 13.07 6.82121C13.1698 6.86788 13.2581 6.93597 13.3287 7.02064C13.4009 7.10414 13.4538 7.20257 13.4837 7.30889C13.5135 7.41521 13.5195 7.5268 13.5012 7.6357Z" fill="black"/>
</svg>
