<svg width="30" height="30" viewBox="0 0 30 30" fill="none" xmlns="http://www.w3.org/2000/svg">
<rect x="0.5" y="0.5" width="29" height="29" rx="14.5" fill="white" stroke="black"/>
<path d="M15 10C16.104 9.9986 16.9986 9.104 17 8C17 6.89545 16.1046 6 15 6C13.8954 6 13 6.89545 13 8C13 9.10455 13.8954 10 15 10ZM15 7C15.5521 7.00037 15.9996 7.44788 16 8C16 8.55231 15.5523 9 15 9C14.4477 9 14 8.55231 14 8C14 7.44769 14.4477 7 15 7ZM15 13C13.8954 13 13 13.8954 13 15C13 16.1046 13.8954 17 15 17C16.104 16.9986 16.9986 16.104 17 15C17 13.8954 16.1046 13 15 13ZM15 16C14.4477 16 14 15.5523 14 15C14 14.4477 14.4477 14 15 14C15.5521 14.0004 15.9996 14.4479 16 15C16 15.5523 15.5523 16 15 16ZM15 20C13.8954 20 13 20.8954 13 22C13 23.1046 13.8954 24 15 24C16.104 23.9986 16.9986 23.104 17 22C17 20.8954 16.1046 20 15 20ZM15 23C14.4477 23 14 22.5523 14 22C14 21.4477 14.4477 21 15 21C15.5521 21.0004 15.9996 21.4479 16 22C16 22.5523 15.5523 23 15 23Z" fill="black"/>
</svg>
