<svg width="20" height="20" viewBox="0 0 20 20" fill="none" xmlns="http://www.w3.org/2000/svg">
<path d="M10 0C4.47368 0 0 4.47368 0 10C0 15.5263 4.47368 20 10 20C15.5263 20 20 15.5263 20 10C20 4.47368 15.5263 0 10 0ZM10 18C5.05263 18 2 14.9474 2 10C2 5.05263 5.05263 2 10 2C14.9474 2 18 5.05263 18 10C18 14.9474 14.9474 18 10 18ZM10 8.1579C8.97368 8.1579 8.1579 8.97368 8.1579 10C8.1579 11.0263 8.97368 11.8421 10 11.8421C11.0263 11.8421 11.8421 11.0263 11.8421 10C11.8421 8.97368 11.0263 8.1579 10 8.1579ZM10 10C10 9.5 10.5 10 10 10C10 9.5 10 9.55263 10 10C10.4474 10 10 9.55263 10 10C10.5 10 10.4474 10 10 10ZM15.2632 8.1579C14.2368 8.1579 13.4211 8.97368 13.4211 10C13.4211 11.0263 14.2368 11.8421 15.2632 11.8421C16.2895 11.8421 17.1053 11.0263 17.1053 10C17.1053 8.97368 16.2895 8.1579 15.2632 8.1579ZM15.2632 10C15.7105 10 14.5 9.55263 14.5 10C14.5 10.4211 15.7105 10 15.2632 10ZM4.73684 8.1579C3.71053 8.1579 2.89474 8.97368 2.89474 10C2.89474 11.0263 3.71053 11.8421 4.73684 11.8421C5.76316 11.8421 6.57895 11.0263 6.57895 10C6.57895 8.97368 5.76316 8.1579 4.73684 8.1579ZM4.73684 9.71234C4.28947 9.71234 5 10.4211 5 10C5 9.55263 4.28947 10.2477 4.73684 10.2477C5.18421 10.2477 4.5 9.55263 4.5 10C4.5 10.4211 5.18421 9.71234 4.73684 9.71234Z" fill="#000957"/>
</svg>
