<svg width="25" height="19" viewBox="0 0 25 19" fill="none" xmlns="http://www.w3.org/2000/svg">
<path d="M0.34082 8.547L8.54395 0.343871C9.27637 -0.388551 10.5459 0.124144 10.5459 1.17395V5.86145H17.1865C17.8359 5.86145 18.3584 6.38391 18.3584 7.03332V11.7208C18.3584 12.3702 17.8359 12.8927 17.1865 12.8927L10.5459 12.8927V17.5802C10.5459 18.6251 9.28125 19.1427 8.54395 18.4103L0.34082 10.2072C-0.113281 9.74817 -0.113281 9.00598 0.34082 8.547ZM15.2334 0.588012V2.54114C15.2334 2.8634 15.4971 3.12707 15.8193 3.12707L19.9209 3.12707C20.7852 3.12707 21.4834 3.82532 21.4834 4.68957V14.0646C21.4834 14.9288 20.7852 15.6271 19.9209 15.6271H15.8193C15.4971 15.6271 15.2334 15.8907 15.2334 16.213V18.1661C15.2334 18.4884 15.4971 18.7521 15.8193 18.7521H19.9209C22.5088 18.7521 24.6084 16.6525 24.6084 14.0646V4.68957C24.6084 2.10168 22.5088 0.00207418 19.9209 0.00207418H15.8193C15.4971 0.00207418 15.2334 0.265746 15.2334 0.588012Z" fill="#F7F7F7"/>
</svg>
