<svg width="17" height="17" viewBox="0 0 17 17" fill="none" xmlns="http://www.w3.org/2000/svg">
<path d="M15.5875 6.21891L3.68818 0.267205C3.21857 0.0333959 2.68831 -0.0498418 2.16968 0.0288408C1.65106 0.107523 1.16931 0.344297 0.790119 0.70688C0.410931 1.06946 0.152757 1.54021 0.0507963 2.05494C-0.0511642 2.56966 0.00805092 3.10332 0.220368 3.58316L2.26026 8.14896C2.30654 8.25935 2.33038 8.37786 2.33038 8.49756C2.33038 8.61727 2.30654 8.73578 2.26026 8.84616L0.220368 13.412C0.0475727 13.8003 -0.0254761 14.2256 0.00786032 14.6494C0.0411967 15.0731 0.179861 15.4818 0.411252 15.8383C0.642644 16.1948 0.959425 16.4878 1.33281 16.6907C1.70619 16.8936 2.12433 16.9999 2.54924 17C2.94722 16.996 3.33926 16.9031 3.69668 16.7279L15.596 10.7762C16.0181 10.5638 16.3729 10.2383 16.6208 9.83591C16.8687 9.43356 17 8.97021 17 8.49756C17 8.02492 16.8687 7.56157 16.6208 7.15921C16.3729 6.75686 16.0181 6.43131 15.596 6.21891H15.5875ZM14.8311 9.25428L2.93172 15.206C2.77547 15.281 2.60001 15.3065 2.42888 15.279C2.25774 15.2514 2.09911 15.1722 1.97426 15.052C1.8494 14.9317 1.76429 14.7761 1.73034 14.6061C1.69638 14.436 1.7152 14.2597 1.78428 14.1007L3.81567 9.53486C3.84197 9.47389 3.86467 9.41143 3.88367 9.34781H9.73985C9.96527 9.34781 10.1815 9.25823 10.3409 9.09878C10.5003 8.93933 10.5898 8.72306 10.5898 8.49756C10.5898 8.27207 10.5003 8.0558 10.3409 7.89635C10.1815 7.7369 9.96527 7.64732 9.73985 7.64732H3.88367C3.86467 7.58369 3.84197 7.52124 3.81567 7.46027L1.78428 2.89446C1.7152 2.73543 1.69638 2.55908 1.73034 2.38905C1.76429 2.21902 1.8494 2.06343 1.97426 1.94316C2.09911 1.82289 2.25774 1.74368 2.42888 1.71615C2.60001 1.68862 2.77547 1.71409 2.93172 1.78914L14.8311 7.74085C14.9703 7.8122 15.0871 7.9206 15.1687 8.05412C15.2503 8.18763 15.2935 8.34108 15.2935 8.49756C15.2935 8.65405 15.2503 8.8075 15.1687 8.94101C15.0871 9.07453 14.9703 9.18293 14.8311 9.25428Z" fill="white"/>
</svg>
