<svg width="25" height="25" viewBox="0 0 25 25" fill="none" xmlns="http://www.w3.org/2000/svg">
<path d="M19.1406 3.90625H17.1477C17.0576 3.46522 16.818 3.06883 16.4694 2.78411C16.1208 2.4994 15.6845 2.34384 15.2344 2.34375H14.8438C14.8437 1.72215 14.5968 1.12601 14.1573 0.686468C13.7177 0.24693 13.1216 0 12.5 0C11.8784 0 11.2823 0.24693 10.8427 0.686468C10.4032 1.12601 10.1562 1.72215 10.1562 2.34375H9.76562C9.3155 2.34384 8.87923 2.4994 8.53059 2.78411C8.18196 3.06883 7.94237 3.46522 7.85234 3.90625H5.85938C5.34137 3.90625 4.84459 4.11203 4.47831 4.47831C4.11203 4.84459 3.90625 5.34137 3.90625 5.85938V23.0469C3.90625 23.5649 4.11203 24.0617 4.47831 24.4279C4.84459 24.7942 5.34137 25 5.85938 25H19.1406C19.6586 25 20.1554 24.7942 20.5217 24.4279C20.888 24.0617 21.0938 23.5649 21.0938 23.0469V5.85938C21.0938 5.34137 20.888 4.84459 20.5217 4.47831C20.1554 4.11203 19.6586 3.90625 19.1406 3.90625ZM9.76562 3.125H10.5469C10.6505 3.125 10.7498 3.08384 10.8231 3.01059C10.8963 2.93733 10.9375 2.83798 10.9375 2.73438V2.34375C10.9375 1.92935 11.1021 1.53192 11.3951 1.2389C11.6882 0.94587 12.0856 0.78125 12.5 0.78125C12.9144 0.78125 13.3118 0.94587 13.6049 1.2389C13.8979 1.53192 14.0625 1.92935 14.0625 2.34375V2.73438C14.0625 2.83798 14.1037 2.93733 14.1769 3.01059C14.2502 3.08384 14.3495 3.125 14.4531 3.125H15.2344C15.5452 3.125 15.8432 3.24846 16.063 3.46823C16.2828 3.688 16.4062 3.98607 16.4062 4.29688C16.4062 4.60768 16.2828 4.90575 16.063 5.12552C15.8432 5.34529 15.5452 5.46875 15.2344 5.46875H9.76562C9.45482 5.46875 9.15675 5.34529 8.93698 5.12552C8.71721 4.90575 8.59375 4.60768 8.59375 4.29688C8.59375 3.98607 8.71721 3.688 8.93698 3.46823C9.15675 3.24846 9.45482 3.125 9.76562 3.125ZM20.3125 23.0469C20.3125 23.3577 20.189 23.6557 19.9693 23.8755C19.7495 24.0953 19.4514 24.2188 19.1406 24.2188H5.85938C5.54857 24.2187 5.2505 24.0953 5.03073 23.8755C4.81096 23.6557 4.6875 23.3577 4.6875 23.0469V5.85938C4.6875 5.54857 4.81096 5.2505 5.03073 5.03073C5.2505 4.81096 5.54857 4.6875 5.85938 4.6875H7.85234C7.94237 5.12853 8.18196 5.52492 8.53059 5.80964C8.87923 6.09435 9.3155 6.24991 9.76562 6.25H15.2344C15.6845 6.24991 16.1208 6.09435 16.4694 5.80964C16.818 5.52492 17.0576 5.12853 17.1477 4.6875H19.1406C19.4514 4.6875 19.7495 4.81096 19.9693 5.03073C20.189 5.2505 20.3125 5.54857 20.3125 5.85938V23.0469ZM7.42188 15.625H10.5469C10.8577 15.625 11.1557 15.5015 11.3755 15.2818C11.5953 15.062 11.7187 14.7639 11.7188 14.4531V13.6719C11.7188 13.5683 11.6776 13.4689 11.6043 13.3957C11.5311 13.3224 11.4317 13.2812 11.3281 13.2812C11.2245 13.2812 11.1252 13.3224 11.0519 13.3957C10.9787 13.4689 10.9375 13.5683 10.9375 13.6719V14.4531C10.9375 14.5567 10.8963 14.6561 10.8231 14.7293C10.7498 14.8026 10.6505 14.8438 10.5469 14.8438H7.42188C7.31827 14.8438 7.21892 14.8026 7.14566 14.7293C7.0724 14.6561 7.03125 14.5567 7.03125 14.4531V11.3281C7.03125 11.2245 7.0724 11.1252 7.14566 11.0519C7.21892 10.9787 7.31827 10.9375 7.42188 10.9375H10.5469C10.6505 10.9375 10.7498 10.8963 10.8231 10.8231C10.8963 10.7498 10.9375 10.6505 10.9375 10.5469C10.9375 10.4433 10.8963 10.3439 10.8231 10.2707C10.7498 10.1974 10.6505 10.1562 10.5469 10.1562H7.42188C7.11107 10.1563 6.813 10.2797 6.59323 10.4995C6.37346 10.7193 6.25 11.0173 6.25 11.3281V14.4531C6.25 14.7639 6.37346 15.062 6.59323 15.2818C6.813 15.5015 7.11107 15.625 7.42188 15.625ZM11.8609 10.6609L9.375 13.1469L8.45156 12.2234C8.37789 12.1523 8.27922 12.1129 8.1768 12.1138C8.07438 12.1147 7.9764 12.1558 7.90398 12.2282C7.83155 12.3006 7.79047 12.3986 7.78958 12.501C7.78869 12.6034 7.82806 12.7021 7.89922 12.7758L9.09922 13.975C9.17247 14.0482 9.27181 14.0894 9.37539 14.0894C9.47897 14.0894 9.57831 14.0482 9.65156 13.975L12.4141 11.2133C12.4852 11.1396 12.5246 11.0409 12.5237 10.9385C12.5228 10.8361 12.4817 10.7381 12.4093 10.6657C12.3369 10.5933 12.2389 10.5522 12.1365 10.5513C12.0341 10.5504 11.9346 10.5898 11.8609 10.6609ZM11.3281 20.3125C11.2245 20.3125 11.1252 20.3537 11.0519 20.4269C10.9787 20.5002 10.9375 20.5995 10.9375 20.7031V21.4844C10.9375 21.588 10.8963 21.6873 10.8231 21.7606C10.7498 21.8338 10.6505 21.875 10.5469 21.875H7.42188C7.31827 21.875 7.21892 21.8338 7.14566 21.7606C7.0724 21.6873 7.03125 21.588 7.03125 21.4844V18.3594C7.03125 18.2558 7.0724 18.1564 7.14566 18.0832C7.21892 18.0099 7.31827 17.9688 7.42188 17.9688H10.5469C10.6505 17.9688 10.7498 17.9276 10.8231 17.8543C10.8963 17.7811 10.9375 17.6817 10.9375 17.5781C10.9375 17.4745 10.8963 17.3752 10.8231 17.3019C10.7498 17.2287 10.6505 17.1875 10.5469 17.1875H7.42188C7.11107 17.1875 6.813 17.311 6.59323 17.5307C6.37346 17.7505 6.25 18.0486 6.25 18.3594V21.4844C6.25 21.7952 6.37346 22.0932 6.59323 22.313C6.813 22.5328 7.11107 22.6562 7.42188 22.6562H10.5469C10.8577 22.6562 11.1557 22.5328 11.3755 22.313C11.5953 22.0932 11.7187 21.7952 11.7188 21.4844V20.7031C11.7188 20.5995 11.6776 20.5002 11.6043 20.4269C11.5311 20.3537 11.4317 20.3125 11.3281 20.3125ZM11.8609 17.6922L9.375 20.1781L8.45156 19.2547C8.37789 19.1835 8.27922 19.1442 8.1768 19.145C8.07438 19.1459 7.9764 19.187 7.90398 19.2594C7.83155 19.3319 7.79047 19.4298 7.78958 19.5323C7.78869 19.6347 7.82806 19.7334 7.89922 19.807L9.09922 21.0063C9.17247 21.0795 9.27181 21.1206 9.37539 21.1206C9.47897 21.1206 9.57831 21.0795 9.65156 21.0063L12.4141 18.2445C12.4852 18.1709 12.5246 18.0722 12.5237 17.9698C12.5228 17.8673 12.4817 17.7694 12.4093 17.6969C12.3369 17.6245 12.2389 17.5834 12.1365 17.5825C12.0341 17.5817 11.9346 17.621 11.8609 17.6922ZM9.76562 8.59375H14.4531C14.5567 8.59375 14.6561 8.5526 14.7293 8.47934C14.8026 8.40608 14.8438 8.30673 14.8438 8.20312C14.8438 8.09952 14.8026 8.00017 14.7293 7.92691C14.6561 7.85365 14.5567 7.8125 14.4531 7.8125H9.76562C9.66202 7.8125 9.56267 7.85365 9.48941 7.92691C9.41615 8.00017 9.375 8.09952 9.375 8.20312C9.375 8.30673 9.41615 8.40608 9.48941 8.47934C9.56267 8.5526 9.66202 8.59375 9.76562 8.59375ZM18.3594 11.7188H13.6719C13.5683 11.7188 13.4689 11.7599 13.3957 11.8332C13.3224 11.9064 13.2812 12.0058 13.2812 12.1094C13.2812 12.213 13.3224 12.3123 13.3957 12.3856C13.4689 12.4588 13.5683 12.5 13.6719 12.5H18.3594C18.463 12.5 18.5623 12.4588 18.6356 12.3856C18.7088 12.3123 18.75 12.213 18.75 12.1094C18.75 12.0058 18.7088 11.9064 18.6356 11.8332C18.5623 11.7599 18.463 11.7188 18.3594 11.7188ZM18.3594 13.2812H13.6719C13.5683 13.2812 13.4689 13.3224 13.3957 13.3957C13.3224 13.4689 13.2812 13.5683 13.2812 13.6719C13.2812 13.7755 13.3224 13.8748 13.3957 13.9481C13.4689 14.0213 13.5683 14.0625 13.6719 14.0625H18.3594C18.463 14.0625 18.5623 14.0213 18.6356 13.9481C18.7088 13.8748 18.75 13.7755 18.75 13.6719C18.75 13.5683 18.7088 13.4689 18.6356 13.3957C18.5623 13.3224 18.463 13.2812 18.3594 13.2812ZM18.3594 18.75H13.6719C13.5683 18.75 13.4689 18.7912 13.3957 18.8644C13.3224 18.9377 13.2812 19.037 13.2812 19.1406C13.2812 19.2442 13.3224 19.3436 13.3957 19.4168C13.4689 19.4901 13.5683 19.5312 13.6719 19.5312H18.3594C18.463 19.5312 18.5623 19.4901 18.6356 19.4168C18.7088 19.3436 18.75 19.2442 18.75 19.1406C18.75 19.037 18.7088 18.9377 18.6356 18.8644C18.5623 18.7912 18.463 18.75 18.3594 18.75ZM18.3594 20.3125H13.6719C13.5683 20.3125 13.4689 20.3537 13.3957 20.4269C13.3224 20.5002 13.2812 20.5995 13.2812 20.7031C13.2812 20.8067 13.3224 20.9061 13.3957 20.9793C13.4689 21.0526 13.5683 21.0938 13.6719 21.0938H18.3594C18.463 21.0938 18.5623 21.0526 18.6356 20.9793C18.7088 20.9061 18.75 20.8067 18.75 20.7031C18.75 20.5995 18.7088 20.5002 18.6356 20.4269C18.5623 20.3537 18.463 20.3125 18.3594 20.3125Z" fill="#E1E1E1"/>
</svg>
