<svg width="25" height="25" viewBox="0 0 25 25" fill="none" xmlns="http://www.w3.org/2000/svg">
<g clip-path="url(#clip0_165_208)">
<path d="M19.55 14.55C20.275 13.95 20.75 13.025 20.75 12C20.75 10.275 19.35 8.75 17.75 8.75C16.15 8.75 14.75 10.275 14.75 12C14.75 13.025 15.225 13.95 15.95 14.55C15.625 14.675 15.325 14.8 15.025 14.975C14.075 13.85 12.825 12.975 11.375 12.55C12.475 11.775 13.25 10.45 13.25 9C13.25 6.725 11.375 4.75 9.25 4.75C7.125 4.75 5.25 6.725 5.25 9C5.25 10.45 6.025 11.775 7.125 12.55C4.025 13.475 1.75 16.35 1.75 19.75C1.75 20.025 1.975 20.25 2.25 20.25H22.75C23.025 20.25 23.25 20.025 23.25 19.75C23.25 17.35 21.7 15.3 19.55 14.55ZM15.75 12C15.75 10.95 16.625 9.75 17.75 9.75C18.875 9.75 19.75 10.95 19.75 12C19.75 13.05 18.875 14.25 17.75 14.25C16.625 14.25 15.75 13.05 15.75 12ZM6.25 9C6.25 7.475 7.525 5.75 9.25 5.75C10.975 5.75 12.25 7.475 12.25 9C12.25 10.525 10.975 12.25 9.25 12.25C7.525 12.25 6.25 10.525 6.25 9ZM2.775 19.25C3.025 15.9 5.85 13.25 9.25 13.25C12.675 13.25 15.475 15.9 15.725 19.25H2.775ZM16.725 19.25C16.65 18 16.25 16.8 15.6 15.8C16.25 15.45 16.975 15.25 17.75 15.25C20.075 15.25 21.975 17 22.225 19.25H16.725Z" fill="#F7F7F7"/>
<path d="M271 -197.5V223.5H-175V-197.5H271ZM273 -199.5H-177V225.5H273V-199.5Z" fill="#E1E1E1"/>
</g>
<defs>
<clipPath id="clip0_165_208">
<rect width="25" height="25" fill="white"/>
</clipPath>
</defs>
</svg>
