<svg width="25" height="25" viewBox="0 0 25 25" fill="none" xmlns="http://www.w3.org/2000/svg">
<g clip-path="url(#clip0_165_211)">
<path d="M9.39047 1.56561C6.80609 1.56561 4.70296 3.6703 4.70296 6.25311V9.37811C4.70296 10.8625 5.40765 12.175 6.48734 13.0344C3.14046 14.2094 0.667027 17.3187 0.552965 21.0719C0.547883 21.2853 0.626988 21.4921 0.77318 21.6476C0.919372 21.8032 1.12091 21.895 1.33421 21.9031H15.6889C14.914 21.5149 14.2186 20.9849 13.6389 20.3406H2.31078C2.8264 16.7156 5.88734 13.9765 9.63422 14.0906C10.4311 14.114 11.1811 14.2672 11.8811 14.5281C11.9623 14.0234 12.0733 13.5266 12.2561 13.0609C12.8205 12.6267 13.2782 12.069 13.5939 11.4307C13.9097 10.7924 14.0753 10.0903 14.078 9.37811V6.25311C14.078 3.6703 11.9733 1.56561 9.39047 1.56561ZM9.39047 3.12811C11.1342 3.12811 12.5155 4.5078 12.5155 6.25311V9.37811C12.5155 11.1234 11.1342 12.5031 9.39047 12.5031C7.64515 12.5031 6.26547 11.1234 6.26547 9.37811V6.25311C6.26547 4.5078 7.64515 3.12811 9.39047 3.12811ZM18.7717 9.40311C15.328 9.40311 12.5217 12.2094 12.5217 15.6531C12.5217 19.0953 15.328 21.9031 18.7717 21.9031C22.2139 21.9031 25.0217 19.0953 25.0217 15.6531C25.0217 12.2094 22.2139 9.40311 18.7717 9.40311ZM18.7717 10.9656C21.3686 10.9656 23.4592 13.0547 23.4592 15.6531C23.4592 18.25 21.3686 20.3406 18.7717 20.3406C16.1733 20.3406 14.0842 18.25 14.0842 15.6531C14.0842 13.0547 16.1733 10.9656 18.7717 10.9656ZM17.9811 12.5281V15.6531H19.5436V12.5281H17.9811ZM17.9811 17.2156V18.7781H19.5436V17.2156H17.9811Z" fill="#F7F7F7"/>
</g>
<defs>
<clipPath id="clip0_165_211">
<rect width="25" height="25" fill="white"/>
</clipPath>
</defs>
</svg>
