<svg width="31" height="30" viewBox="0 0 31 30" fill="currentColor" xmlns="http://www.w3.org/2000/svg">
<g clip-path="url(#clip0_30_182)">
<path d="M29.5159 11.2797L16.8199 0.509271C16.4583 0.181527 15.9877 0 15.4997 0C15.0116 0 14.5411 0.181527 14.1795 0.509271L1.48481 11.2799C1.17483 11.5607 0.92709 11.9033 0.757538 12.2857C0.587986 12.6681 0.500383 13.0817 0.500366 13.5L0.500366 29.0036C0.500366 29.2678 0.605325 29.5212 0.792163 29.7081C0.979001 29.895 1.23242 30 1.49667 30L10.0004 30C10.5527 30 11.0004 29.5523 11.0004 29V22.5C11.0004 21.654 11.8285 20.9682 12.6748 20.9682H18.3245C19.171 20.9682 20.0004 21.654 20.0004 22.5V29C20.0004 29.5523 20.4481 30 21.0004 30H29.5041C29.7683 30 30.0217 29.895 30.2086 29.7081C30.3954 29.5212 30.5004 29.2678 30.5004 29.0036V13.5C30.5003 13.0817 30.4127 12.6681 30.2431 12.2857C30.0736 11.9033 29.8259 11.5606 29.5159 11.2797Z"/>
</g>
<defs>
<clipPath id="clip0_30_182">
<rect width="30" height="30" fill="white" transform="translate(0.5)"/>
</clipPath>
</defs>
</svg>
