<svg width="25" height="25" viewBox="0 0 25 25" fill="currentColor" xmlns="http://www.w3.org/2000/svg">
<path d="M12.4937 0C5.5875 0 0 5.59375 0 12.5C0 19.4063 5.5875 25 12.4937 25C19.4 25 25 19.4063 25 12.5C25 5.59375 19.4 0 12.4937 0ZM12.5 22.5C6.975 22.5 2.5 18.025 2.5 12.5C2.5 6.975 6.975 2.5 12.5 2.5C18.025 2.5 22.5 6.975 22.5 12.5C22.5 18.025 18.025 22.5 12.5 22.5ZM16.875 11.25C17.9125 11.25 18.75 10.4125 18.75 9.375C18.75 8.3375 17.9125 7.5 16.875 7.5C15.8375 7.5 15 8.3375 15 9.375C15 10.4125 15.8375 11.25 16.875 11.25ZM8.125 11.25C9.1625 11.25 10 10.4125 10 9.375C10 8.3375 9.1625 7.5 8.125 7.5C7.0875 7.5 6.25 8.3375 6.25 9.375C6.25 10.4125 7.0875 11.25 8.125 11.25ZM12.5 19.375C15.4125 19.375 17.8812 17.5563 18.8812 15H6.11875C7.11875 17.5563 9.5875 19.375 12.5 19.375Z"/>
</svg>
