<svg width="20" height="20" viewBox="0 0 20 20" fill="currentColor" xmlns="http://www.w3.org/2000/svg">
<path d="M9.995 0C4.47 0 0 4.475 0 10C0 15.525 4.47 20 9.995 20C15.52 20 20 15.525 20 10C20 4.475 15.52 0 9.995 0ZM10 18C5.58 18 2 14.42 2 10C2 5.58 5.58 2 10 2C14.42 2 18 5.58 18 10C18 14.42 14.42 18 10 18ZM13.5 9C14.33 9 15 8.33 15 7.5C15 6.67 14.33 6 13.5 6C12.67 6 12 6.67 12 7.5C12 8.33 12.67 9 13.5 9ZM6.5 9C7.33 9 8 8.33 8 7.5C8 6.67 7.33 6 6.5 6C5.67 6 5 6.67 5 7.5C5 8.33 5.67 9 6.5 9ZM10 15.5C12.33 15.5 14.305 14.045 15.105 12H4.895C5.695 14.045 7.67 15.5 10 15.5Z"/>
</svg>
