<svg width="15" height="15" viewBox="0 0 15 15" fill="currentColor" xmlns="http://www.w3.org/2000/svg">
<path fill-rule="evenodd" clip-rule="evenodd" d="M3.21354 0.964761C0.436539 1.81459 -0.553612 4.68661 0.293623 7.19934C1.65646 11.2287 7.50104 14.25 7.50104 14.25C7.50104 14.25 13.389 11.1822 14.7077 7.19934C15.5541 4.68661 14.5576 1.81459 11.7806 0.964761C10.3215 0.51997 8.6499 0.804996 7.50104 1.64883C6.28664 0.780994 4.67429 0.51697 3.21354 0.964761ZM10.3645 3.02342C9.96325 2.92072 9.5547 3.16276 9.45199 3.56404C9.34929 3.96532 9.59133 4.37388 9.99261 4.47658C10.9764 4.72838 11.5144 5.37534 11.5753 5.96938C11.6176 6.38143 11.9859 6.6812 12.3979 6.63894C12.81 6.59668 13.1098 6.22839 13.0675 5.81634C12.925 4.42677 11.7728 3.38387 10.3645 3.02342Z"/>
</svg>
