<svg width="20" height="6" viewBox="0 0 20 6" fill="currentColor" xmlns="http://www.w3.org/2000/svg">
<path d="M12.9032 2.90323C12.9032 4.50806 11.6048 5.80645 10 5.80645C8.39516 5.80645 7.09677 4.50806 7.09677 2.90323C7.09677 1.29839 8.39516 0 10 0C11.6048 0 12.9032 1.29839 12.9032 2.90323ZM17.0968 0C15.4919 0 14.1935 1.29839 14.1935 2.90323C14.1935 4.50806 15.4919 5.80645 17.0968 5.80645C18.7016 5.80645 20 4.50806 20 2.90323C20 1.29839 18.7016 0 17.0968 0ZM2.90323 0C1.29839 0 0 1.29839 0 2.90323C0 4.50806 1.29839 5.80645 2.90323 5.80645C4.50806 5.80645 5.80645 4.50806 5.80645 2.90323C5.80645 1.29839 4.50806 0 2.90323 0Z"/>
</svg>
