<svg width="31" height="30" viewBox="0 0 31 30" fill="currentColor" xmlns="http://www.w3.org/2000/svg">
<path fill-rule="evenodd" clip-rule="evenodd" d="M15.5 27C8.07895 27 3.5 22.4211 3.5 15C3.5 7.57895 8.07895 3 15.5 3C22.9211 3 27.5 7.57895 27.5 15C27.5 22.4211 22.9211 27 15.5 27ZM12.7368 15C12.7368 13.4605 13.9605 12.2368 15.5 12.2368C17.0395 12.2368 18.2632 13.4605 18.2632 15C18.2632 16.5395 17.0395 17.7632 15.5 17.7632C13.9605 17.7632 12.7368 16.5395 12.7368 15ZM20.6316 15C20.6316 13.4605 21.8553 12.2368 23.3947 12.2368C24.9342 12.2368 26.1579 13.4605 26.1579 15C26.1579 16.5395 24.9342 17.7632 23.3947 17.7632C21.8553 17.7632 20.6316 16.5395 20.6316 15ZM4.84211 15C4.84211 13.4605 6.06579 12.2368 7.60526 12.2368C9.14474 12.2368 10.3684 13.4605 10.3684 15C10.3684 16.5395 9.14474 17.7632 7.60526 17.7632C6.06579 17.7632 4.84211 16.5395 4.84211 15Z"/>
<path fill-rule="evenodd" clip-rule="evenodd" d="M15.5 0C7.21053 0 0.5 6.71053 0.5 15C0.5 23.2895 7.21053 30 15.5 30C23.7895 30 30.5 23.2895 30.5 15C30.5 6.71053 23.7895 0 15.5 0ZM3.5 15C3.5 22.4211 8.07895 27 15.5 27C22.9211 27 27.5 22.4211 27.5 15C27.5 7.57895 22.9211 3 15.5 3C8.07895 3 3.5 7.57895 3.5 15Z"/>
</svg>
