<svg width="31" height="30" viewBox="0 0 31 30" fill="currentColor" xmlns="http://www.w3.org/2000/svg">
<path fill-rule="evenodd" clip-rule="evenodd" d="M27.9988 19.592H27.3692C29.1035 19.592 30.5 20.962 30.5 22.6523V23.2664C30.5 23.9472 29.9402 24.4899 29.2492 24.4899H1.75081C1.05935 24.4899 0.5 23.942 0.5 23.2664V22.6523C0.5 20.9629 1.9017 19.592 3.63076 19.592H3.00122C3.68831 19.592 4.24991 19.0432 4.24991 18.3663V11.0204C4.24991 4.93129 9.28673 0 15.5002 0C21.715 0 26.7504 4.93391 26.7504 11.0204V18.3663C26.7504 19.0475 27.3093 19.592 27.9991 19.592H27.9988ZM11.1245 25.7144H19.8745C19.8745 28.0812 17.9156 30 15.4995 30C13.0834 30 11.1245 28.0812 11.1245 25.7144V25.7144Z" />
</svg>
