<svg width="31" height="30" viewBox="0 0 31 30" fill="currentColor" xmlns="http://www.w3.org/2000/svg">
<path d="M15.5 0C7.21371 0 0.5 6.71371 0.5 15C0.5 23.2863 7.21371 30 15.5 30C23.7863 30 30.5 23.2863 30.5 15C30.5 6.71371 23.7863 0 15.5 0ZM15.5 5.80645C18.4395 5.80645 20.8226 8.18952 20.8226 11.129C20.8226 14.0685 18.4395 16.4516 15.5 16.4516C12.5605 16.4516 10.1774 14.0685 10.1774 11.129C10.1774 8.18952 12.5605 5.80645 15.5 5.80645ZM15.5 26.6129C11.9496 26.6129 8.76814 25.004 6.63911 22.4879C7.77621 20.3468 10.002 18.871 12.5968 18.871C12.7419 18.871 12.8871 18.8952 13.0262 18.9375C13.8125 19.1915 14.6351 19.3548 15.5 19.3548C16.3649 19.3548 17.1935 19.1915 17.9738 18.9375C18.1129 18.8952 18.2581 18.871 18.4032 18.871C20.998 18.871 23.2238 20.3468 24.3609 22.4879C22.2319 25.004 19.0504 26.6129 15.5 26.6129Z"/>
</svg>
