<svg width="25" height="25" viewBox="0 0 25 25" fill="currentColor" xmlns="http://www.w3.org/2000/svg">
<path d="M22.8528 10.3845H14.8936V2.13742C14.8936 0.956471 13.9371 0 12.7562 0C11.5752 0 10.6188 0.956471 10.6188 2.13742V10.3845H2.12766C0.956471 10.3845 0 11.341 0 12.522C0 13.7029 0.956471 14.6594 2.13742 14.6594H10.6285V22.8577C10.6285 24.0386 11.585 24.9951 12.766 24.9951C13.9469 24.9951 14.9034 24.0386 14.9034 22.8577V14.6594H22.8626C24.0435 14.6594 25 13.7029 25 12.522C24.9854 11.341 24.0338 10.3845 22.8528 10.3845Z"/>
</svg>
