<svg width="4" height="14" viewBox="0 0 4 14" fill="currentColor" xmlns="http://www.w3.org/2000/svg">
<path d="M2 4.88889C3.10556 4.88889 4 5.78333 4 6.88889C4 7.99444 3.10556 8.88889 2 8.88889C0.894444 8.88889 0 7.99444 0 6.88889C0 5.78333 0.894444 4.88889 2 4.88889ZM0 2C0 3.10556 0.894444 4 2 4C3.10556 4 4 3.10556 4 2C4 0.894445 3.10556 0 2 0C0.894444 0 0 0.894445 0 2ZM0 11.7778C0 12.8833 0.894444 13.7778 2 13.7778C3.10556 13.7778 4 12.8833 4 11.7778C4 10.6722 3.10556 9.77778 2 9.77778C0.894444 9.77778 0 10.6722 0 11.7778Z"/>
</svg>
